<!-- Generated by IcoMoon.io -->
<svg version="1.1" xmlns="http://www.w3.org/2000/svg" width="1024" height="1024" viewBox="0 0 1024 1024">
<title></title>
<g id="icomoon-ignore">
</g>
<path d="M0 819v-819h819v819h-819zM12.5 806.5h794.5v-794.5h-794.5v794.5zM24.5 794.5v-769h769v769h-769zM84 35.5q9 0 12.25 7.25t3.25 11.25q0 5-6.5 15.5 14.5-12.5 14.5-21.5 0-18.5-15.5-18.5-7 0-8 6zM93 78.5l-7 12.5h2q2 0 19.5-11.5 56.5-41 103.5-41 46 0 87 32 4-1 7-2t5.5-2l-12.5-10.5q-45-26.5-93-26.5-55.5 0-112 49zM698.5 46q0 4 1 5l1 2q4 7 12 13.5l2.5-4q-8-11.5-8.5-15.5 0-7 7-7.5 3 0 11.5 5.5-2-11.5-11.5-14.5l-4-1q-6 0-8.5 6.25t-2.5 10.25zM735 59q-8-5-14-5h-2l1 24.5 5 7.5 8 9 7.5 5 7 9.5v3q1 10-7 10-4 0-17.5-28.5-9-18.5-28.5-18.5-8 0-11.5 1l-12.5 1q3 7 11.5 12.5-15.5 2-19.5 16.5-1 1-1 6 0 9 6 12l8.5 5.5 1-13.5q1-9 14-9 9 0 18.5 10l4 6q16.5 24.5 30 25 10 0 18.25-7.25t8.25-15.25q0-25.5-19.5-44.5-6-15.5-6-19v-5.5q6-16.5 15.5-16 12.5 0 12 8 0 11.5-15.5 21.5-1 1-1 3v3l1 2 25 7.5-16.5-16.5q15.5-4 15.5-19.5 0-19.5-25-19.5-9 0-12.25 4t-8.25 24.5zM498.5 73.5q-2-6-9-6-46 0-46-20.5 0-6 8-6h6q-9-11.5-17-11.5-14.5 0-14.5 14.5 0 22.5 62.5 28.5 2 1 10 1zM349 34.5q11.5 5 11.5 11.5v3q-7 4-15.5 4h-7l-3-2-14.5-4-36-13.5-12-2 9 6 17.5 7.5 13.5 6 10 3q10 7 25.5 7 30.5 0 31-13l-2-10.5q-6-7-13.5-7l-3 1zM509 60q-3 3-3 5.5v2q11.5 4 18.5 4t27.5-6q3-1 10.25-5.75t12.25-4.75q2 0 2 3 0 2-5 2l-3-1 1 3.5-8.5 7q-6 9-6 14.5 0 15.5 18.5 15h2q-4-7-4-12 0-13.5 20-23.25t47.5-9.75q25.5 0 54 16.5 12.5 0 20.5 6l-8-11q-42-30.5-93-31-28.5 0-47.5 7.5-35 8-48 8-19.5 0-19.5-10.5v-1l1-2 3.5-3-10.5-1q-8-2-8 8.5 0 18 25.5 19zM30.5 53q0 2 3.5 9.5l3 5 1 4 1 6q0 4-6 10.5 2 1 7 1 9 0 9-12.5 0-4-4-11-8-8-8-12.5 0-7 5-7 4 0 12.5 6l4 5 1 2 2 6.5v15l-1 3.5q-2 6-3 10-4 12.5-6.75 20t-3.75 12l-3 14-4 14.5-2 13q4-5 9-10.5t12.5-13l11-9 4.5-4h5q0 2 1 3 0 2-5 4-29.5 19.5-41 49 3-3 4.5-5t2.5-3q14.5-17.5 28.5-22.5l1 3q-14.5 9-20.5 16.5-2 2-4 4.5t-4 5.5q-10 13.5-11.5 31 1-3 2.75-7.75t5.75-10.75l5-6 7-8.5 18.5-13 19.5-8.5q7-4 9.5-15-8-1-9.5-6.5 5-2 10.25-4.5t10.25-5.5l5-10.5q4-4 4.5-8 0-2-1-3-12.5-5-14.5-5.5-2 0-6.75 0.75t-9.75 1.75l-1-9.5q-11.5 2-18.5 9.5-2 3-4 3-2-2-2-4 0-3 9-9.5 17.5-11.5 17.5-27.5 0-5-4-4h-2l-8 3q-4-25.5-17.5-30-6-3-11.5-3-9 0-12.25 5.25t-3.25 13.25zM191.5 47q12.5 5 16.5 9 8 8 9 8.5 4 0 4-4.5 0-3-7-9-1-1-2-1l-1-1-19.5-3v1zM232.5 52q-1 1-2 1.5t-3 2.5v2q0 7 7 7.5 7 0 7-6.5 0-7-9-7zM114.5 81.5q36-20.5 49.5-20.5 5 0 17 6.5l-2-1 3.5 8-4.5 8q19.5-1 19.5-12 0-16.5-26.5-16.5-7 0-14.5 4l-14 5.5q-5 2-17.5 11-2 1-4.25 3t-6.25 4zM266 65.5q-3 8-10 11 7 4 11.5 4 3 0 8-11-2-6-6-12.5l-2-1-5.5-2zM625.5 69.5l-4 4q-1 3-1 10.5 0 17.5 15.5 17 5 0 13-4-14.5-8-14-18.5 0-13.5 21.5-13 7 0 21.5 3-14.5-9-25.5-9.5-17 0.5-27 10.5zM201.5 131l7.5 2q4-6 10-7 4 11.5 12.5 12 59.5-50 148.5-50 72.5 0 126 28.5l15 7q4 2 6.75 4.25t4.75 3.25q10 10 13.5 9l13-5q5-1 10.25-1.5t10.25-1.5q-4-13.5-22.5-23.5l-15.5-8.5q-24.5-13.5-71.5-23.5-50-11.5-77-11-56.5 0-109.75 18.5t-81.75 47zM210 68.5q-2 1-5 4v1q0 7 7 7t7-6-9-6zM523.5 81.5q3 7 8 7.5 1 0 4.5-4.75t5.5-5.75q7-4 7.5-5 0-2-1-3l-8.5 2-8 2zM235.5 82.5q3-4 3-8 0-3-5-3-8 0-8 5 0 6 6 6h4zM592 97l1 3 2 7.5-16.5-2 5 19 6.5 9.5q8 8 19.5 9v3q0 2-3.5 2.5-5 0-17.25-4.25t-19.25-4.25q-20.5 0-20.5 7.5 0 3 9 7l-1 2q-14.5 2-21.5 14.5l-7 10-1-1-2 5q0-2 11 12.5 12.5 3 17.5 3 7 0 26.5-8v2l-5 14q7 1 12.25 1.5t8.25 0.5l4-1 16.5-13 3 1 1 12q1 9 14.5 9.5l7-1-4-19.5q0-11.5 14.5-19.5 1-1 5-1 5 0 16.5 6l3 4q2 12.5 8 17.5 1-2 1-7 0-3-3-8l-4-9.5-7.5-6v-1q0-3 3.5-3h1l7 8 1 2 2 6q3 9 3 14.5 0 8-1 11.5l3 3 4.5-3 1-10.5v-6q0-10-7.5-20.5-12.5-21.5-32.5-21.5-5 0-20.5 4 0-8 11-8h9.5q10-1 28.5 13l2 3q13.5 13.5 13.5 38v5l-4 8.5v6q9-12.5 9-25.5 0-17.5-11-34-5-8-11.75-12t-13-6.25-10.25-2.75-4-1.5l1-1q0-2 4-2t9 3l10.5 5.5 7 3q-2-4-4-5.75t-3-2.75l-17.5-13-27.5-10.5q-26.5-9-26.5-30.5 0-2 3-13.5-1-1-5.5-1-17.5 0-15 15.5zM116.5 88q5-1 8.25-1.5t5.25-0.5q9 0 9.5 7l-1.5 5q8-5 8.5-8 0-10-12.5-10.5h-3l-1 1zM104.5 206.5l1 6.5 5 14q6-6 7.5-11l-5.5-20.5q-1-2-1-9.5 0-17.5 7.25-33.25t19-28 27-19.5 32.75-7.25q8 0 25.5 6 10-2 11.5-7l-1-1q0-1-1-2l-9.5-2-9-4q-8-2-11-2-20.5 0-38.5 7.5t-31.75 21.5-22 31.75-8.25 37.25q0 5 0.5 11.25t1.5 11.25zM234.5 141l4 5q59.5-47 149.5-47 37 0 69.5 8.5l38 9q-33-23.5-117.5-23.5-86 0-143.5 48zM380 112.5h7q16.5-2 14.5 9v6.5l-12.5 6-16.5 1q-3 0-3 4 0 15.5 19.5 15.5 13.5 0 13.5-5 0-3-2-3.5h-14.5q-5 0-5-4t15.5-4 15-14.5q0-10-10-16-8-2-9.5-2-2 0-3 1zM349 131q0 5 0.5 9.5t1.5 10l4.5 1 2 9-1-10v-11.5q-3-7-6.5-25.5 0-3-2-3-3 0-3 3 0 6 4 17.5zM333 121.5l3 33 11-3q0-17.5-7-40h-3q-6 0-7.5 4 0.5 2 3.5 6zM321.5 115.5q1 4 1.5 7.25t0.5 6.25q0 15.5-11 15-4 0-10.5-6l-2 8q0 10 12.5 10.5 17.5 0 17-25.5 0-15.5-6-15.5h-2zM464 124.5q2 14.5 9 14.5t13.5-11l1-1v-1q-2-3-3-3.5l-10.5 5.5zM435 122.5q-7 1-7 6.5 0 9 9 9 8 0 8.5-8 0-7-9.5-7.5h-1zM492.5 126q-8 26.5-8 39.5 0 37 19.5 62.5 8-8 8-10 0-4-10-23.5-5-13.5-5.5-30 0-6 3.25-17.25t3.25-16.25q-0.5-4-10.5-5zM508 131q-5 15.5-5 19.5 0 20.5 15 20.5 15.5 0 16.5-7.5l2-6-12 3q-4 0-8.75-6.5t-4.75-12v-8q0-1-3-3zM414.5 135q-6 2-6 7 0 7 7 7.5 8 0 8.5-7.5 0-7-8.5-7h-1zM271.5 136l-2 8-9.5 9.5-5 13h-5l-6.5-6q-4 0-4 17.5 0-2 0.5 2t1.5 14.5v7q2 11.5-9 11.5-8 0-8-10.5v-3l11-26.5v-4q0-9-5-20.5t-13.5-11.5q-3 0-3 5v2h-4l-9.5-4q-1-1-4-1-6 0-16.5 9.5 16.5 3 24 10l5 10.5-3 32.5q0 7 3 11.5 6 10 25.5 18.75t37 8.75q25.5 0 47-22.5l18.5-19.5q15.5-16.5 44-16.5 2 0 5.5 0.5t9 1.5q-8-20.5-21.5-20.5-4 0-10.75 2.75t-9.75 2.75q-1-1-1-10.5-33 5-38 16.5l-9.5 20.5-3 6-5-1q1-3 1-11.5 0-7-4-15l4-1 1.5 3.5t3.5 10.5l2-3-1-16.5v-2q0-7-11-7h-1q-10 2-11.5 3 1 1 1.5 2t2.5 3q10 13.5 8.5 26v9q0 7-7.5 7h4.5l-3.5-2q-1 0 1-8v-2q0-6-1-9.5l-2-9-8-11.5-2-6q0-4 19.5-5-6-15.5-11.5-17.5l-8-2h-3zM455.5 137q-4 0-6 5v2q0 9 8 9.5 8 0 8.5-7.5-0.5-9-10.5-9zM770 139l-4 5-8 4.5-13.5 4v1q0 9 11 9 18.5 0 18.5-14 0-5.5-4-9.5zM116.5 177v7q2-4 2.75-7t1.75-5q3-17.5 21.5-17.5 2 0 7 5 2-8 2-9 0-8-10-8.5-21 0-25 35zM434 144q-8 0-8 7.5 0 8 9 8 8 0 8.5-7-0.5-8.5-9.5-8.5zM707.5 185q0 9 1 12.5v7q0 10-9 23.5l1 3q4-5 7-14.75t7.5-22.75q2-17.5 8-27l3-1q11.5 0 13.5 11.5 1-5 1.5-8.25t0.5-4.25q0-11.5-15.5-11-18.5 0-18.5 27.5v4zM84 481q2 3 11 5l9.5 2h9q4 0 9.75-0.5t13.75-1.5q7 0 9.5-1l-2-10-3-18.5q-7-27.5-7.5-81 0-51 15.5-108.5 17.5-57.5 39-81 13.5-13.5 13-19.5 0-11.5-29.5-11-96.5 111.5-96 245.5 0 14.5 2 34.5t6 45.5zM417 156.5h-1.5q-9 0-9 6 0 10 9 10.5 8 0 8.5-8.5 0-7-7-8zM464 256l-6.5 20.5q20.5-12.5 20.5-64.5 0-20.5-9-36.5t-20.5-16q-4 0-4 4v2l15.5 18.5q10 13.5 10 37 0 9-4 24.5-1 1-1 5 0 3.5-1 5.5zM761 320.5q-5 11.5-9.5 24.5 0 3 5 11 27.5-43 28-130 0-61.5-15.5-61.5-9 0-9 8.5v2l13 47q3 8 3 20.5 0.5 28-15 78zM432 170h-1q-6 0-6 7 0 13.5 10 13.5 9 0 9.5-10.5 0-10-12.5-10zM200.5 176q-60.5 79-60 226 0 27.5 6 59.5l4 18.5q2 5 3 5l4-1q-4-33-5.5-61.5t-1.5-53q0-118 46-175 5-8 5-10.5 0-6-1-8zM106.5 237.5l-2-11.5-3-10-2-13.5-4.5-10q-6-16.5-15-16.5-10 0-10.5 6v11.5l9.5-6.5h2q7 0 8 4.5l5 8 8.5 26.5zM116.5 186l2.5 16.5 1 4q2-2 2-3 0-2-2.25-8.75t-3.25-8.75zM653.5 219q-8 8-15.5 8-14.5 0-25.5-17.5-3 5-3 6.5 2 2 3 5 10 10 16 26.5l8.5 17.5 5 11.5q5 12.5 9.5 37.5l4 20.5q7 29.5 7 83l9-5q7-4 11.25-6t6.25-4.5l26-19q7-4 7-9.5-1-4-1.5-10.75t-2.5-15.75l-7.5-42q-11.5-59.5-53-117h-3q-3 0-6.5 5.5l-4 11zM357.5 193.5q-4 2-6.5 4 0 36 18.5 36 16.5 0 16.5-12.5 0 1-2-7-6 8-11.5 8-11 0-15-28.5zM733 193.5l1 15q3 2 3.5 4.5v3q-19.5 1-19.5 19.5 0 16.5 18.5 26.5-4-8-4.5-17.5 0-11.5 10.5-11 7 0 18.5 11 5 17.5 5 21.5t-1.5 11.75-3.5 20.25q-1 4-1.5 8t-1.5 9q14.5-45 14-75.5 0-1-2-7.5l-4-9-1-4q-2-4-9.5-9.5l-16-10zM54.5 198.5q-2 2-8.5 31.5-2 5-7 5.5l-8.5-6.5v17.5l7.5 55.5q7-42 26.5-66.5h4l-8 15-6 10.5-1.5 3-10 30.5v20.5l4-14 6-15.5 2.5-5 3-3q1 1 2 1t2 1q-14.5 23.5-14.5 58 0 2 0.5 5.25t1.5 8.25v-7q0-27.5 11.5-42l22.5-25.5q1-3 6-24l-13-1 7-7q1-2 2-5.5t2-9l-1-17q0-2 0.5-4.25t1.5-6.25q-3-1-11-1t-15.5 12.5h-5v-6.5q0-4-3-9zM346 199.5h-1q-3 0-5 5.5l-4 11q-14.5 23.5-14.5 21.5 0 6 5 6 20.5 0 19.5-34v-10zM420 235.5q1-19.5 17-19.5 20.5 0 20.5 25.5 0 15.5-5 19.5t-23.5 6q-2 5-4 5-3 0-3-4 0-5 1-6l-18.5 8q-7 6-7 11.5l1 7 8-9 5-1-3 8-2 14.5 21.5-20.5q1-1 2-1 4 0 4 2l-10 10q-1 1-1 2t-1 2q2 2 3 2.5h1l8-11.5 17.5-8q5-3 8.5-22.5 1-2 1.5-5.75t2.5-8.75q1-2 1-7 0-15.5-8.5-20.5l-12-7.5-3-4h-4.5q-24.5-1-24.5 20.5 0.5 8.5 7.5 12.5zM678 210.5l5 10.5 5 8q13.5 23.5 21.25 49.25t11.75 53.25l5 41q7-4 7-9 0-3-1.5-10.25t-2.5-9.25l-1-19.5-11-41q-7.5-32-39-73zM40 212q-3 8-3 9 0 2 2 2 3 0 3-4 0 1-2-7zM511 251.5q0-13.5 9-24.5l7.5-6q-6-2-5.5-2-19.5 0-19 20.5 0 7 8 12zM548 254l-4.5 1 25 8q10 2 12 2 31.5 0 32-27.5 0-18.5-14.5-18.5-10 0-10 7l7 2.5t7 8q0 22.5-22.5 21.5h-4zM514 247.5q0 14.5 17.5 29 9 9 18.75 17.25t14.75 20.25l-9 2v1q0 5 7 5.5 10 0 10.5-15.5 0-13.5-7-16.5l-9.5-2-5-5q5 1 9 1.5t6.5 0.5q3 0 3-2 0-17.5-25.5-24.5-18.5-4-18.5-10.5v-1q1-3 4-3t15.5 3h3q21.5 0 31.5-19.5-3 1-11 1l-10.5-2q-14.5-3-22.5-3h-1q-6-1-13.75 8.25t-7.75 15.25zM217 247.5v3l-5 11.5 5 13.5 15.5-4.5 9-9 8.5 11 5 2.5 9-1.5-5-11-2-14.5q-2-9-13.5-9-5 0-8 9-2 3-3 3-2 0-2-2v-1q3-7 3-10 0-1-9-6.5-2-1-8.5-1-15.5 0-17.5 11.5 0 6 8.5 6 7 0 10-1zM477 249.5l10.5-6 8 6-1-11q0-3-6-3-8.5-0.5-11.5 14zM355.5 254q4-4 8-4.5 6 0 24.5 9.5l2 3 6.5 9q8-5 8-9l-1.5-5q-1.5-4.5-3.5-13.5l-8.5 7q-11.5-8-18.5-8-9 0-17 11.5zM278.5 257q7 10 11.5 10l1-1h2l12-8h1l2-1q5 0 5.5 6 0 4-1 5l-4.5 13.5v2q0 13.5 13.5 13.5 6 0 8-1.5-8-8-8-13 0 1 2-5l4-11.5q1-1 1-4 0-20.5-19.5-20.5-1 0-9.5 6.25t-12 7.25l-2 0.5q-2 0.5-7 1.5zM359.5 255l9 15 1 9.5 1 3-8 21.5-2 18.5-3 10 2 16.5q5 19.5 16.5 30.5 33 23.5 66.5 24 45 0 60.5-21.5l19-29q10-17.5 36-25.5-10-7-16.5-7-1 0-14 5l-6.5 4-3 4h-5l3-15q-22.5 9-40 41.5-1 3-5.5 9.25t-9.5 6.25q-6 0-6.5-5 0-3 4.5-6 12.5-8 16-12.5l5.5-9 2-4.5 3-10 1-15.5q0-4-4-4-2 0-10.5 5h-2v-4q7-7 7-18.5 0-19.5-8-19.5h-1q-2 4-8.75 7.75t-24.25 10.75l-9 15.5-4-1-4-6-3.5 2q-11.5 15.5-13 23.5l-5 27.5q-1 1-2.25 1.5t-2.25 1.5h-2q-6 0-6-6l1-3 15.5-34q2-3 3-19.5-5 3-6 3-4 0-5.5-1 1-5 1.5-8t0.5-5q0.5-23.5-34.5-26.5zM475 255l-3 13 3 4 5.5 3.5 1 8 2 9-3 11.5q8-2 8-16.5 0-22.5-13.5-32.5zM572.5 272q3 12.5 26.5 12.5 31.5 0 32-9 0-13.5-6.5-13.5-2 0-10.75 3.5t-11.75 4.5q-12.5 3-18.5 3-8 0-11-1zM286.5 279.5q-36 12.5-56 12-7 0-30-3-5 8-5 8.5 0 4 26.5 4 18.5 0 48.5-8.5 36-11.5 35.5-26.5 0-2-2-2h-1zM210 273h-3l-13.5 11.5q-12.5 11.5-12.5 30.5 0 16.5 9.5 16.5 4 0 4-4l-1-2-5-13.5v-2q0-15.5 21.5-37zM169 276.5l-2 7v4q13.5 9 14 8l3.5-5q2-2 2-3 0 3.5-17.5-11zM489.5 309q2-4 6-5l-2 10-4 6.5 2 8q12.5-15.5 12.5-28.5 0-18.5-5.5-18.5-9 0-9 27.5zM573.5 291.5l10 4 19.5 3.5q12.5 2 22.5 18 4 7 4.5 17.5 0 26.5-27 27-9 0-19.5-12.5-1 2-1 8 0 17.5 26 17.5 15.5 0 26-11.75t10.5-27.25q0-47-64.5-47-2 0-3 1zM247 335.5h-1q-12.5 0-12.5-9t16.5-19.5q4-2 7.5-4t7.5-4q0-2-3-2t-16 5l-16.5 8q-8 5-8.5 15.5 0 16.5 15.5 16.5 7.5-0.5 10.5-6.5zM504 317l12-5 3 2 1 9.5 26-7.5q-7-7-20.5-9l1-8h-5.5q-13-0.5-17 18zM266 318.5l4.5 11v22.5l5 10.5 1 2 4 4v5l-13-2 3 15.5 3 8q12.5 17.5 35.5 17.5 17.5 0 37-16.5h-2q-5 0-5-3t4-3h4l5.5 1q2 0 5-4l-21.5-3v-1q0-4 2-4.5 4 0 10.75 1.75t9.75 1.75l9 1q-10-6-17.25-7.25t-22.75-4.25l-6-2q4-3 6-3t7.25 2 9.25 2 8.5-4l-30-11.5-8-2-1-4 43 13.5q-7-9-19.5-14.5v-4l15.5 6q-1-3-1.5-6 0-4-1-5.5-2-19.5-9-25.5t-28.5-8l3 12-1 3.5q-20.5-15.5-35-15.5-12.5 0-14.5 2l-6 5 4 2zM735 335.5q1 7 3.25 13.75t4.25 13.25l5 7 3 3 4 6 4.5 1q1-2 1-6l-8-12.5q-8.5-13-8.5-27.5l1-6 9-15.5v-2q0-4-3-4-13.5 0-15.5 29.5zM198.5 318.5q4 4 8.5 4 6 0 6-7.5 0-8-9-8-6 0-6.5 7zM65.5 340l1-11.5q2-10 12.5-14.5-1-4-5.5-4-10 0-10 16.5 0 2 0.5 5.25t1.5 8.25zM780.5 324.5l-4.5 11-2 26q-6 10-13.75 25.25t-15.75 36.75q-1 5-1.5 9.75t-0.5 8.75l-1 14.5q0 4 4 4t4-7l-1-5q0-5 0.5-9.75t1.5-9.75l4-11.5 2-9 26-48.5q3-4 3-13 0-5-5-22.5zM208 329.5q-8 0-8.5 7 0 10 9.5 10.5 9 0 9-9.5 0-8-10-8zM183.5 335.5q-5 0-6.5 4.5l-1 2q0 8 9.5 8 6 0 6-7 0-7.5-8-7.5zM57.5 335.5l-3 5.5q1 2 3 8t6 14.5l1 2q-2 2-3 2 1 0-8.5-13.5 1 7 3.5 10.5l1 8q1 1 1.5 3t2.5 4l1 2.5 5 8q1-7 1.5-11.75t0.5-6.75l-1-3-6-14.5q-1-4-3-16.5zM222 355l9.5 15.5-4 2q-8-16.5-16.5-14.5h-2q4 2 6 4.25t4 3.25l4 6 1.5 1v1l-4.5 26.5q0 12.5 7.5 12.5 3-1 5-5h4l3 7q8 11.5 18.5 11.5v-25l-7-11 13-1-15-24.5 4 12-3 1q-7-13.5-16.5-19.5l5 9.5 3 6 2 6q0 3-3 3.5-3 0-7-16.5-2.5-5.5-11.5-11.5zM203 442l12 8.5h-10q-12.5 2-12.5 5 0 6 6 7 16.5 21.5 46 27l48.5 7q3 1 7 3.5t9 6.5q7 7 7.5 11.5 0 4-3 5l-10.5 2-6 6.5-3 1q-1 1-1 5l14 9h8.5q1 0 18.5 11.5l14 14 2 4.5 7.5 11 3 6 2 3.5 3 9 4 14.5q5 18.5 5.5 20.5 1 15.5 2.5 17.5t6.5 3l-2-14.5-1-22.5q-2-39-22-80t-50-63.5l-7-5-8-5-8.5-6.5-27.5-15-23.5-16.5q-5-2-14.5-8l-5-4.5-3-2-9-10q-6-7-6.5-14.5 0-21.5 19.5-25.5-7-7-12-7-9 0-17.5 12.25t-8.5 23.25q0 9 4.5 17.5 5 13.5 8.25 17.5t12.25 10zM30.5 375.5h2.5q13.5 0 21 9.75t13.5 19.25l-1-7.5-6-10-7.5-13.5q-4-10-13-10-8.5-0.5-9.5 12zM354.5 367.5v4q0 3 8 3zM739.5 368.5l-13.75 13.75t-15.25 12.75l-7 5q-10 7-22 14.25t-26 15.75q-8 3-18.5 7t-21.5 9.5q-4 1-7 11v2q50-12.5 67.5-24.5l27.5-17.5 15.5-11 14-16.5 11.5-10.5q1-1 1-3 0-3-6-8zM514 379.5l12.5 2.5v4q-5-1-8.25-1.5t-4.25-0.5q-4 0-9 5l21.5 4 2 5-19.5-5h-7q-3 0-3.5 2 0 2 14.5 7l7 2.5 18.5 2q-1 4-4 4h-13.5l-12-3-6 1 3 6h-9.5l-17.5-5h-10q-5 0-8 1v2q1 0 4.5 0.5t11.5 1.5q11.5 2 11.5 5 0 2-3 3l-17.5-4q2 11.5 12.5 11.5l1 3h-9.5q1 19.5 23.5 19.5 7 0 22.5-4 3-1 5-1.5l1.5-0.5 12-6.5 10.5-5-14.5-8 1-3.5q4 1 6.5 1.75t5 0.75q25.5 0 38.5-29h-9q-2-1-6.75-2t-10.75-3l-10 1q7-10 7-15.5 0-2-8-4l-17.5-2q-3 0-14.5 8zM620.5 395l8-2q11.5 0 11.5 12.5 0 6-6.25 14.75t-12.25 10.75q-15.5 6-15.5 8 0 3 3.5 3 13.5 0 28.25-13.25t14.75-28.75q0-17.5-17.5-17-10.5-0.5-14.5 12zM355.5 395q-22.5 16.5-22.5 40 0 2 0.5 6t1.5 10.5l1 3 2 2 8 20.5 9.5-3 5-7.5q0-1 2-1t2 2.5q0 3-1 4l1 8q2 12.5 9.5 22.5 10 13.5 15 13.5l2-1q3-1 8.5-6.5l12-8 9.5-7q5-4 6.5-8.25t2-6.75 1-3.5 3.5 0q6 14.5 9.5 14.5 3 0 8-12.5 2-3 5.25-7.25t7.25-9.25l0.5-2t1.5-7l1-10.5 1-2q0-10-10.5-23.5-4-4-10-5l-1 8-1 3-5-1 2-8q0-3-3-3h-2.5l-7 20.5q-1 1-3 1-3 0-3-3 0-2 3.5-7.75t3.5-7.75q0-3-2-3-3 0-4 3l-3 8-4 14.5-8.5 2 11.5-28.5-10.5 11-6 15.5q-3 6-3.5 8.75t-1.5 8.75l-5.5 3 2.5-1q-4-1-4.5-3 0 1 2-7.5 2-10 9.5-28.5 4-4 4-7v-1q-1-4-3-4-3 0-6.75 4.5t-4.75 7.5q-5 14.5-6 15.5l-1 1q-4 0-4-3v-2l1-1 14.5-24q-2-2-5.5-2-5 0-6 7.5l-4 3-4 10h-1q-4 0-4.5-3l3.5-4q3-4 8-12.5 1-1 3-5-2-2-4-2t-3 1l-4 4h-2l-4.5 7.5-2 1q-3 0-3-3t6.75-7.75 6.75-5.75q-3-5-6.5-5zM774 392q-5 5-5 8 0 4 3 8.5 4 9 4 20.5 0 34-38.5 40-1 1-1 5 0 1 4 1 44 0 44-47-0.5-22.5-10.5-36zM597 393q-10 29.5-42 47l-13.5 6.5q-2 1-5.5 2.5t-8.5 3.5q0-1-12.75 2t-28.25 10.25-27.75 17.5-11.25 23.25q0 6 4 13.5-15.5 8-29.5 32.5-23.5 45-23.5 80 0 5 0.5 11.75t1.5 17.25q5 0 5-5.5l1-24.5q2-5 3.5-11.75l3.5-15.75 1-6q1-24.5 34-52.5 2-2 7.25-5l12.25-7v4q-2 12.5 10 12 4 0 5.5-1l63.5-18.5q2-1 8-1 18.5 0 18.5 12.5 0 11.5-14.5 11-3 0-4-1l-28.5-10q-4 0-10.25 4.5t-6.25 9q0 3 1 4 7-6 12.5-6.5 5 0 15.25 6.75t11.25 6.75h1l3-1 11-3-3 15.5 25-10.5q18.5-7 18-26.5 0-7-12-24.5l13-1q-12.5-26.5-42-27-34 0-54 14.5-7 6-10.75 9.25t-4.75 4.25h-4q-6 0-6-7.5 0-6 9-11 13.5-7 22.5-9.5l54.5-6q21.5-2 34.5-32.5l-17-1q19.5-16.5 19-33 0-11.5-10-21.5zM732 404.5l-7 7q-1 84-50 187.5l-3.5 7-6 8v4.5q1 3 4 3 4 0 15.5-20.5l18.5-40q30.5-65.5 30.5-139.5 0-3-0.5-7.5t-1.5-9.5zM35 407.5q-4 0-4.5 5 0 6 5.5 6 6 0 6-6 0-5-6-5h-1zM49 413.5q1 7 7.5 7 5 0 5-7 0-6-5-6-7.5 0-7.5 6zM162 443q5 10 8 11.5l8 3q9 4 7.5 4 2 0 2-3l-1-1-15.5-17.5q-2-2-2-3 0-6 11-8-3-11.5-9-11.5-10 0-10 14.5 0 8 1 11zM719 417.5l-36 23.5-21.5 9.5q-1 35-9.75 71.75t-26.25 75.75q16.5 5 30 12l6 3q24.5-38 41-91 17.5-57.5 17.5-92v-4q0-5.5-1-8.5zM50 476q-9-19.5-9-28.5 0-1 2-7.5l2-7 2-10.5h-3q-12.5-1-12.5 20.5 0 23 18.5 33zM300 458.5l2 4 2 1 6.5 8.5q6 9 14 12l5 7.5 5.5 3 2 3 4 7 1 3 10.5 11.5 10 18.5v1l4 7q-4-24.5-25.5-52l-19.5-23.5q-8-11.5-8-23.5 0-6 11-17.5-5-5-9-5.5l-8.5 2.5q-10 6-10 17 0 6.5 3 15.5zM57.5 429q-7 0-7.5 7 0 5 5.5 5 7 0 7-5 0-7-5-7zM53 471l2.5 4 4 2 2 6q-3-1-11.5-1-13.5 0-14 18.5 7-3 10-3 2 0 4.5 0.5t7 1.5q5-5 5-9t-1-6.5q20.5 11.5 40 11.5h10q7 0 12.5-1l-23.5-2-14.5-3-10-3.5-4.5-3-5-3-1-3q7-3 7-7 0-2-2-4.5l-8-11-2-7q-9 0-10.5 12v1q0 3.5 3 10.5zM165 458.5v4q0 8 9.75 10.75t18.75 4.75h3q2 0 2-2 0-5-30.5-16.5zM595 477q23.5-2 32.75-3t4.25-1l5 1q3 1 9 1 4 0 6.5-9.5h-12.5l-7 1q-2 1-9.5 1.5h-7t-9.5 1q-9 1-12 8zM764 480l6 2 7-1 2.5 9.5 3 3q2-10 2-10.5 0-8-10.5-8-7 0-10 5zM750.5 479l-5 5q4 18.5 7 18.5t3-3q0-2-2.5-9.75t-2.5-10.75zM134 494.5l85-6.5q-4-4-9-4l-13.5 1-28.5 2-23.5 4.5h-8.5q-1 1-1 2zM592 486q7 9 23.5 9.5 10 2 30.5 9 1-2 1-8 0-8-21.5-10.5l-25.5-1zM760 485v7.5q19.5 10 19.5 22.5 0 7-4.5 7-5 0-9-4l-3 3q9 10 13 10.5 8 0 8.5-15.5 0-16.5-24.5-31zM738.5 489.5q-7 7-7.5 16 0 13.5 13.5 12.5h1l6-1 8.5-3 9-4v-1.5q0-3-2-3l-2-1h-1q-17.5 7-15.5 7.5-5 0-12-7.5 4-4 4-9l-0.5-1.5zM208 492.5l-35 3 1 9q17.5-4 31-4h8l13.5-8h-18.5zM198.5 523q4 6 9.5 6 7 0 9-1v4.5q-15.5 11.5-15.5 28.5 0 8 4.5 12 6 14.5 22.5 14.5 4 0 12.75-2t13.75-2q7 0 10 1-3-8-11.75-9.75t-17.75-2.75q-8-8-8-12 0-21.5 23.5-23.5l21.5-2 13-13.5 7.5-6q0-6-13.5-13.25t-28.5-7.25q-18.5 0-41 19.5zM153.5 499.5l6 23.5 13.5 41 6 11.5 4.5 7 8 15.5q1 4 4 4t4-1l-4-9.5-5-10q-5-8-8.75-17.25t-5.75-18.75q-1-4-1.5-5.5t-0.5-2.5l-3-9.5-8-29.5q-1-1-4.5-1h-2zM87 498.5q4 10 6.75 19.25t4.75 19.75l2.5 6q2.5 6 7.5 17.5l9.5 21.5 10 20.5 9 15.5q6 9 9.5 9 4 0 9.75-3.5t11.75-8.25 11.75-8.75 8.75-5q-25.5-41-40-102.5-9 1-16.75 1.5t-13.75 0.5q-17.5 0-31-3zM610.5 506.5q23.5 5 23.5 18.5 0 6-7.5 13.5 15.5-1 15.5-11.5 0-20.5-13.5-21.5l-18-4v5zM404.5 518q8-2 7-2t5.5 2v10l-13.5 36-3 15.5 4-7.5 8-16 10.5-18.5q5-12.5 5-18.5 0-15.5-11-15.5-6.5 0-12.5 14.5zM41 549.5l1 4.5q-8 8-8 10 0 4 7 4 8 0 21.5-10l16.5-12.5q2-2 9-5l-11 13.5h-1q-7 10-7.5 20.5 0 12.5 9.5 19v-6q-2-19.5 20.5-36l-12.5-28.5q-9 6-15.5 9.5-14.5 9-17.5 9-15.5 0-15-14.5 0-4 3-12v-3h-1q-11.5 0-11.5 21.5 0 12 12.5 16zM290 523q-3 4-5 6l-1.5 2.5q-11.5 11.5-11 22.5 0 8 5 18.75t12.5 10.75q3 0 5-6-15.5-12.5-15.5-26 0-10 13.5-23.5 2-2 3.5-3t2.5-2q9-4 9-6 0-3-4-3-1.5 0-14 9zM382 519l-1 17.5v27.5q0 33 6 69.5 1 3 1 8.5v9l-1 7q0 5 4 5.5 5 0 5.5-4 0-3-1.25-9.75t-1.25-9.75l-1-36 3.5-78h-4.5q-4 0-10-7zM726 524l6 7.5 7.5 4 26.5 21.5q2 2 8 2 7 0 7.5-7.5l-1-6q-5 6-8.5 6-8 0-40-24.5l1-2zM725 530q-5 5-5 8.5 0 1 15 19.5l2.5 1 5 9 5 8.5 2 7 8.5 20.5 2 8q1 8 1.5 13.75t0.5 9.75q0 7-3 29-14.5 40-37 40-14.5 0-14.5-14.5 0-10 16.5-11.5l10-2q8-11.5 8.5-17 0-22.5-23.5-23-16.5 0-20.5 16.5 10-7 17.5-7 14.5 0 14 15.5 0 8-5 10l-16.5 4q-9 2-9 20.5 0 12.5 5 14.5 9 5 9 6l-1 2-7 3q-2 2-2 3.5 0 6 15.5 6 20.5 0 28.5-14.5l15.5-24.5 1-1q4 0 4 4 0 6-12.5 19.5l-2 5q-20.5 26.5-18.5 37v3l2.5 10.5 12-11.5q2 29.5 18.5 30 8 0 11.5-14.5l-6.5 1q-9 0-9-11.5v-1q1-8 3-19.75t7-28.25q9-28.5 9.5-68.5 0-71-58.5-116zM718 545.5v4l10 11.5 5 11v9.5q1 25.5-21.5 25.5-9 0-9-8 0-3 3-5.5l11.5-7 1-10-17.5 11q-8 11.5-8.5 16.5 0 15.5 12.5 15.5l10.5-2 3 1-3 6v4l20-8q4-2 8.5-11.5 2-10 2-13 0-18.5-14.5-36l-6-6zM614.5 549.5q-8 13.5-15.5 17.5l-25.5 12.5q-14.5 6-14.5 12l2 10.5-14 9-6.5 7.5q-26.5 35-25.5 61v14.5l9.5-4q4-53 25.5-64.5l8-4-1 8q2 2 7 3h1q3 0 9.75-1.5t8.75-1.5l2 1 8.5 3q4 0 4-6 0-11.5-20.5-16.5h-2q-3-1-3-5v-2l2-2 21.5-11.5q15.5-9 18.5-25.5l1-5q0-8.5-1-10.5zM471 550.5l-1 3.5q-26.5 0-40 22.5l-5 10q-2 6-4 12.75t-3 13.75q6-2 7.5-4.5t7.5-19q9-21.5 43-21.5 3 0 4.5 1l3 3 7 8.5q3 2 3 6 0 10-14.5 19.5 7 4 11.5 4 8 0 14.25-8.75t6.25-16.75q0-10-8.75-20.25t-17.75-9.25h-9.5q-3-0.5-4-4.5zM299 561q0 3-1 5l-1 2q0 5 5 5 6 0 6-6t-8-6h-1zM47 707.5l6 10q36 63.5 96.5 63.5l4-1h6q4-2 5.5 2 7 7 14 7.5 8 0 11.5-1 12.5-2 19.5-3.75t9-1.75 5.25 0.5 8.25 1.5q-2-2-5.75-4.5t-7.75-4.5h-23.5l-7 1q-1 1-5 1-2 0-2.5-2 0-3 13.5-4 4-1 10.75-6.75t7.75-11.75l-10 5-33 4-9 10.5h-10.5l-13.5-2q-67.5-10-82.5-66.5l-5.5-19.5-3-9.5q-1-6-3-29.5v-3q0-10 3-19.5l7-27.5q2-6 5.25-12.25t5.25-13.75q0-3-2-5-6 0-12.5 15.5l-9 27.5q-5 18.5-5 43-0.5 26 12 56.5zM318.5 566q-4 0-4 4 0 5 3 6.5h2q5 0 5-4.5 0-6-6-6zM335 571q-4 0-6.5 5.5v1q0 4 5.5 4 5 0 5-5 0-5.5-4-5.5zM519 581.5q13.5 4 13.5 15.5l-1 4-8 29.5-3.5 10.5q4-6 6.5-9.5 19.5-28.5 19.5-40 0-17.5-15.5-17-7.5 0-11.5 7zM399.5 585.5h-1l2 1 1-6-1-1zM63.5 581.5q-7 17.5-7 26.5 0 14.5 10.75 24.75t24.75 10.25q30.5 0 31-28 0-17.5-18.5-16h-8q-5-2-5.5-4.5v-4q-6 5-6 9.5 0 10 12.5 10l3-1q2-1 6-1 5 0 5 7t-14 15.5q-5 3-9.5 3-17.5 0-21.5-12l-4-10.5 2-19.5zM320.5 582.5q-3 0-3 6 0 5 5 5 6 0 6-5 0-6-8-6zM302 586.5q-5 2-5 8 0 8 6 8.5 9 0 9.5-8.5 0-8-8.5-8h-2zM329.5 606l3.5 3q4-9 10-9 14.5 0 25.5 42l1 4v-5q1-20.5-7.5-36.5t-20-16q-12.5 0-12.5 17.5zM268.5 613q3 16.5 11 28-4-11.5-4-19.5 0-13.5 9-13.5 5 0 11.5 9.5l1.5-4.5 0.5-2q0-13.5-15.5-13-10-0.5-14 15zM580.5 603v3h23.5q13.5-1 39 8l15.5 11.5q14.5 23.5 14.5 35 0 5-1.5 6l-4 11-1 8.5h3q11.5 2 11.5-22.5 0-13.5-1-14.5l-5-13.5q-6-14.5-29.25-25.5t-46.75-11q-5 0-7 1zM141.5 643l-3.5 10q-9-12.5-14-12-5 0-9.5 3l-3 3t-9 10q-9 9-12.5 9.5-5 0-11-3l-4-12.5q-11.5 5-11.5 11.5 0 13.5 19.5 17-8 8-8 12.5 0 2 6 2h10q10-1 16.5-13 2-5 7-5.5h2l-1 6.5-7 7-2 7-3 5v3.5q0 5 1 10l1 10.5 8-1v8q0 6 2.75 11.75t9.75 17.75q16.5-9 16.5-21.5 0-7-1-10l7 1 2 3h1l2 1q3 0 3-4v-2l-1-14.5-7-15.5v-2q0-4 3-4 4 0 5 1l3 9.5-1 9q3 5 3.5 10l-1 14.5-3.5 3q0 4 10.5 10.5l2-12.5 4 1q6 13.5 20.5 13.5 23.5 0 23.5-16.5 0-3-2-5l-15.5-19.5-1-1v-2q0-7 9.5-7.5l7 1.5 1 3q-2-11.5-13-11.5-15.5 0-15.5 15.5 0 8 14.5 20.5l3 2v5q0 6-7.5 6-5 0-14-11l-5.5-12.5-2-35.5q0-20.5-21.5-22.5v-2q0-18.5 14-32t34.5-13.5q57.5 0 74.5 68l6 3q-1-36-23.5-57.5t-59.5-21.5q-21.5 0-32.5 8l-20.5 16.5zM443.5 609l-2 3q-13.5 2-23.5 12.5l-3.5 11v20.5q0 13.5-20.5 13.5h-8q-5 0-8-1l-10.5-11.5-11-29.5q-5-12.5-11.5-12.5-4 0-6 5.5l-3 10-17.5-8-2-1q-16.5 0-22.5 20.5h2q14.5 0 25.5 11l3 5q17.5 48 41 48.5 2 0 3-1l9.5-4.5h6l4 11.5 17.5 1 7 1-3-17.5q10 3 18.5 3 7 1 18.5-10 2-2 3-3.5t2-2.5l14.5-30q9-18.5 23.5-18.5h2l15.5 6.5q4 0 4-5.5 0-20.5-24.5-20.5-18.5 0-29 16.5-1 1-3 1l-3-3q1-2 1-9 0-4.5-9-12.5zM441.5 719.5v8.5l1 11q123-5 210-112.5-11.5-12.5-33-15.5-79 109.5-171 108.5h-7zM208 622.5l1 1 4 5 9 9.5q3 4 8.5 6-6-10-15.5-21.5l-1-1-6-2v3zM201.5 620.5h-10q-12.5 7-15.5 9t-7 7l-5 12.5q37 40 106.5 67.5 36 13.5 69 20t64 5.5h22.5l-1-19.5h-9.5q-126 1.5-214-102zM49 629.5q-1 2-1 9.5 0 14.5 10.5 14 5 0 6-7-13.5-1-15.5-16.5zM654.5 628.5l-8.5 11.5q-51 70.5-148.5 94l-30.5 8-10.5 1-12 2.5 2 4q0 1 3 1t6.75-0.5 8.75-1.5q23.5-5 36.75-7.75t15.25-3.75q25.5-13.5 33-13l37-19.5q7-4 12.5-7.75t10-8.75l46-46q4-4 4-7.5 0-1-5-6zM529.5 688l3-2q1-34 17.5-34 6 0 12 8.5l2 3q5-8 5.5-14.5 0-9-13.5-9-21.5 0-25.5 34.5zM477 684v-1q-2-15.5 9.5-15.5t14 6l3.5 6 7 14.5v-4q0-36-24.5-36-15.5 0-15.5 21.5 0 4.5 6 8.5zM653.5 661.5q-4 1-4.5 6 0 7 7.5 7 6 0 6-6 0-7-8-7h-1zM639 671.5l-3 3v2q0 5 3 5.5 5 0 5-5.5 0-5-5-5zM650 683q-5 0-6 4v2q0 6 7.5 6 7 0 7-6-0.5-6-8.5-6zM469 785q-33-30.5-33-55 0-16.5 14.5-24.5 4-3 7-3l2.5 1 15 4-1-9.5q-2-6-11-6-33 0-33 39 0 26.5 19.5 43l9.5 8 4 4zM670.5 696v1q0 7 4.5 7.5 7 0 7-7.5 0-5-7-5l-1 1q-3.5 2-3.5 3zM638 707.5q4-4 4-9.5-1-1-2-1l-1-1-2-1q-6 0-6 5 0 4.5 7 7.5zM40 700l6 30 7 23.5q1 4 1.75 6.5t0.75 4.5q0 13.5-21.5 13.5 6 8 12 8 17.5 0 17.5-19 0-7-3-16.5l-14.5-34-3-9zM657.5 701q-4 1-4 4.5 0 5 5 5 6 0 6-6l-1-1zM96.5 708.5l-6.5-3q-5 0-5 5t5 5q7 0 7.5-5zM563 739q6-15.5 15.5-15 10 0 13.5 9l7 18.5q3 10 20.5 10 18.5 0 18.5-14 0-5-6-7.5l-13.5-2q-10-1-10-11 0-4 6-12.5l14-6h-6q-1-1-5-1-14.5 0-14.5 20.5 0 13.5 7.5 14 22.5 4 22.5 7.5 0 7-15.5 7-9 0-10.5-3l-10-23.5q-5-11.5-18.5-11.5-15.5 0-15.5 20.5zM228.5 733q4-10 11-10.5 7 0 7.5 10.5 0 17.5-26 29.5 31.5-12.5 32-32.5 0-15.5-16.5-15.5-11.5 0-11 7 0 5.5 3 11.5zM700.5 753.5l-1-3q-7 4-15.5 4-4 0-10.75-4.5t-6.75-13q0-14.5 19.5-15.5-1-7-10-7-23.5 0-23.5 25.5 0 22.5 24.5 22.5 9 0 23.5-9zM93 721.5q-1 1-1.5 2.25t-1.5 2.25q1 1 1.5 2t1.5 2h1q5 0 5.5-3 0-5-5.5-5.5h-1zM430 753.5l-2-8h-41l-30.5-4.5-40-8-27.5-6 1 3q0 1 12 5l18.5 6q7 2 13.25 3.25l11.25 2.25q25.5 3 29 3l10 2h9l26 2h11zM71.5 727q14.5 20.5 23.5 20.5 5 0 11.5-9.5-4 1-6.5 1.5t-5 0.5q-7 0.5-23.5-13zM219 770q10 2 10.5 2 4 0 8-4l16.5-11.5 10-11 5.5-5.5q3-1 3-5t-5-4h-2.5l-2 2-11 15.5q-6.5 7-33 21.5zM543.5 737l-8 2q40 46 103.5 46 40 0 76-26.5l11-8 7-6.5 3.5-12-20.5 17.5-21.5 13-25 11.5q-13.5 5-30.5 5-56.5 0-95.5-42zM253 763.5l-20.5 10.5q0 3 4 3 3 0 6.75-3t25.25-14.5q15.5-6 29.5-6 10 0 18.5 9l1 3.5v1l-2 15 7-6q4-3 4-12.5 0-21.5-30.5-21.5-16.5 0-23.5 7.5zM148.5 749.5q0 4 3 4 5 0 5-5 0-4-4-4.5-3 0-4 3.5v2zM485.5 785q-3-7-3-13 0-12.5 14-12.5 10 0 49.5 18.5 19.5 9 43 9.5 3 0 11-3.5l-13-4-30-6-33.5-17.5q-12.5-6-25-6-25.5 0-25.5 21.5 0 9 12.5 13zM158.5 755.5q-2 0-2 2 0 4 3 4 4 0 4.5-4 0-3-4.5-3zM367.5 785q-1-2-1-10 0-11.5 13.5-11.5 10 0 37 17.5 2 1 4.5 3t6.5 4.5v-4.5l-7-6-19.5-12q-14.5-9-27.5-9.5-15.5 0-15.5 15.5 0 9 9 13zM735 785q-12.5-4-12-8l2-19.5-6 8.5q-3 5-3 9 0 12.5 9 12.5 0-0.5 10-2.5zM145.5 757.5q-3 0-3 3 0 4 4 4h2l1-1v-1q0-5-4-5zM408.5 760.5l7 8.5 5.5 5q10 13.5 21.5 13.5 9 0 12-1.5-2-2-3.5-4t-2.5-3q-14.5-12.5-16.5-16t-7-3.5h-1zM695.5 85l14 4 4 3 3.5 5-3.5 2q-7-9-18-11v-3zM751.5 122.5l4 2h3.5q2 0-0.25 2.25t-11.25 8.25l-3-1-2-3 5-1zM88 123.5l6-5q0 2-1 5.75t-6 3.75h-1zM56.5 121.5l1 9.5h-6.5l-2-3 2-3.5zM53 137h2.5l-2.5 4h-2q-3 0-3-2t2-2h3zM643 132q2 6 2 10-8 5-8 6.5 0-5 3-7.5zM631 130q3 2 2 8-3 11.5-3 9.5 0-1-4.5 0l4.5-8.5zM223 159.5q5 7 4.5 14.5 1-1 1-3-4 19.5-8.5 21.5zM611.5 163.5l2 2q0 2-6.5 6.5-4 0-5-3zM345 167.5l-13 12.5q-4 2-7.25 5.5t-6.25 8l3-10.5 10.5-9 6-5zM589 170l5-3.5v8.5l-5-1v-4zM578.5 172h1q3 0 3 3 0 1-2 1h-3zM273.5 189l-2-7-5.5 4zM568.5 175l3 4-2 1-5.5-3zM267.5 193.5l2 6 5-1v-5h-7zM270.5 178l1-8-4 3-3.5 4zM258 232l-6-4q8-8 9-14l1-5.5 5.5-6-1.5 8q-1 3-3 8.25t-5 13.25zM224.5 210.5l5 5.5 9 2-9 2zM285.5 222h3.5q-14.5 3-8.5 3h-10l4-4 3 1h8zM273.5 230l-10.5 3.5 14.5 2q-1-1 7.25-2.75t8.25-2.75q-5-1-12.5 0h-7zM538.5 239.5h21.5l-18.5 3zM49 241.5l3-13.5q-1 2-2.5 4.75t-4.5 6.75q0-1-10 3 1 0 2-1h12zM47 252.5l-9-6 10 2q0-3 6.5-3zM75 277.5l5-9.5q-5 15.5-9.5 15.5-4 0-5-7zM381 278.5q-2 11.5-4.5 25.75t-5 16.25l-7 11 1-4 3-14.5 6.5-20.5zM455.5 301l6.5 4q-2 4-7.5 5-2 0-3-1 0-3 2-3zM447.5 319.5l5-4.5q1 1 1 4.5 0 3-3 3-2 0-3-3zM336 322.5q4 4 4 11-4-6-7-7 9 5 9 13.5 0 15.5-11 15-6 0-6.5-12 0-7 3-21.5l1-3zM450.5 327.5l-1 4h-3q-3 0-3-2t3-2h4zM479 334.5q-1 3-4.5 6.75t-7 6.75-6 4.5-1.5 1.5q-3 0-3.5-2v-1l16.5-14.5 6-16v14zM443.5 337.5v8.5l-5 1-1.5-3zM434 353l3 1.5 1.5 0.5q0 3-3.5 7.5l-4 7-5 10-8 8.5q-3-1-3.5-3 0-2 4.5-3zM493.5 382l19.5-29q-2 9-5.5 14.75t-11 12.75zM504 347l9-6-12.5 17-5 11.5-13 13.5-5.5 1 4.5-5.5 10-10zM380 358l6 3.5 9.5 2 9 1-13.5 2q-6-1.5-11-8.5zM382 369.5l21.5 1-11.5 5q-14-5-10-6zM443.5 375.5l14 6.5q4 1 7.25 2t6.25 2q-15.5 3-22.5-1zM297 386h9q1 1 10.25 3t9.25 3h-18.5q-1 0-9-2zM442.5 390l21.5 4-16.5 3q-2 0-5-7zM307 400l-1 3.5q-21.5-3-21.5-8.5v-1l2-2q2 2 9.75 5t10.75 3zM241.5 398v-5l6.5 4zM246 406.5l0.5 1q0.5 1 2.5 3 0 2 3-3-2-2-2.5-3l-0.5-1zM354.5 412.5q-12.5 30.5-12.5 32.5v-5l1-14 5-8.5 2-5h4.5zM361.5 422.5l-4 13.5-3 1 2-1h-3v-8l5-9.5zM511 428l4 1q-1 4-3 4l-3-1-10.5 1-2-4zM521 437v4l-9 3q-11.5 3-13.5 2.5l-2-1.5-1-6 10.5 2 10-2zM460 447.5l-4.5 17-12 12.5zM566.5 457.5l9-14.5-5 17.5q-11.5 6-14.5 6h-9zM231.5 462.5l22.5-1 1 9.5-22.5-5.5zM580.5 466.5l-15.5 8.5-9 1-11 3-5.5 1q-2 0-3-3 5-1 7-3l25-5 17-10.5zM221 469l40 12q-18.5-1-39-9zM514 466.5l-36 14.5-8 7-3-2q9-5 13.5-9 13.5-10 19-9zM475 505.5l-1 6.5q0 3 5 6l5.5 2-12.5-3-1-11.5h4zM472 523l-8-1-2-9zM548 517l11-4q-2 5-3 7l-1 2-9-1-20.5 5-2-3zM329.5 523q2 2-8 12.5v-1l-2-2 5-5.5 1-5 3-1zM230.5 537.5l9-15.5q-1 1 17.5 1 2 0 2 3 0 1-1 2h-8l-2 2-8.5 3.5-7 4h-2zM338 532.5q-3 4-5 4l1 4h1l6-5v-4zM344 539.5q-6 2-5 2v1l-1 1v1q0 2 2 2 8 0 8-6-1-1-4-1zM343 551.5l8 5.5-1-8.5q0 2-7 3zM603 577.5q-5 4-10.5 7t-13 7l-6 1 19.5-13 7-3zM430 628.5l-4 8 2 11.5-5-1v-11.5q0 1 2-7l1-1 3-2zM129 662.5l3-5.5-6-3h-3zM124 664.5l3 6h-5l-2-4-2-6 1 1zM353.5 685q0 1 4 5.5t3 4.5q-6-2-8-5-10-10-12.5-16.5l-4-10h4q2 5 8.25 14.25t5.25 7.25zM141.5 666.5l-2 8q-4 13.5-4.5 19.5v1q0 8-4 9.5-1-1-3-8.5 1 1 2-2l4-15.5 4-13zM356.5 670.5l5 6 1 8.5-10-12.5-2.5-5zM768 670.5l6-5-4 11zM145.5 682l-2-5.5q3-3 7-3 5 0 5-4 0 11.5-10 12.5zM403.5 674.5q0 2 1 3-5 3-14.5 3.5-12.5 0-12-3.5l2-2 14 1zM148.5 688l-2 3h-3q-2 0-2-2 0-6 8-6t8-2q0 9-3 9l-1.5-0.5zM397.5 691l5-7-14.5 2zM750.5 693l1 2q-11.5 11.5-24.5 15.5l-2-3q9-2 12.5-5l10-10.5zM745.5 709.5q-9 11.5-12.5 11-1-1-1.5-2t-1.5-2q4 0 15.5-11v4zM765 711.5l-5 16.5-5.5 9-3 7-2 2.5q-3 0-3-3.5l2-6 13.5-20.5z"></path>
</svg>
