<!-- Generated by IcoMoon.io -->
<svg version="1.1" xmlns="http://www.w3.org/2000/svg" width="882" height="1024" viewBox="0 0 882 1024">
<title></title>
<g id="icomoon-ignore">
</g>
<path d="M861 39.5q0 37-49 37-9 0-22.5-5-20.5-8-21.5-8 38 47 38 96 0 37-19.5 72.5 1 3 17.5 47.5l1-1q5-56.5 26.5-56.5 2 0 6.75 2t6.75 1q12.5 4 12 19.5 0 17.5-14 17.5-11.5 0-11.5-16.5v-4q2-3 5-2l7.5 1 1 1q3-1 3-3 0-4-3.25-6.75t-7.25-2.75q-2 0-6 1t-5 1q-15.5 17.5-15.5 51.5 0 12.5 2.5 35.5t2.5 34q25.5 8 32.75 15.25t7.25 32.75q0 15.5-9 26-3 6-16.5 6.5t-13.5 11.5q0 6-2.5 17.5t-2.5 16.5q0 4 1 8 1 0 13.5 11.5-2 6-13.5 12.5h-3q-9 0-11.5 12-4 19.5-5 21.5-4 13.5-16.5 38 5 8 20.5 8h13.5q29.5-15.5 29.5-30.5 0-22.5-18-22.5-14.5 0-14.5 8v2l7-1q12.5 0 12.5 12.5t-13.5 12q-3 0-8-5t-6.5-5l-1-7q-2-25.5 21.5-26 30.5 0 31 31 0 10-11.5 26.5-20.5 13.5-49 13.5 22.5 22.5 36 64.5 1 1 3 1t6-2.75 6-2.75q8 0 8.5 16.5 0 5-4.75 9.75t-4.75 8.75 4.25 7.25 5.25 4.25l-2 4h-2q-10 0-13.25-7.25t-6.25-13.25q-4 45-63.5 95 1 3 5 7.25t4 7.25q0 17.5-25.5 17.5-10-5-16.5-13.5l-1-4q0-4 4.25-11.25t4.25-10.25h-4.5q-49 2-67.5-37-21.5 10-62.5 36h2q3 0 8.75-1.5t8.75-1.5q7 0 14.75 12.25t16.25 12.25q10-3 10-8 0-4-4.5-7.75t-4.5-4.75q0-6 4-6 2 0 5 1.5t5 1.5q6 8 6.5 17.5 0 25.5-43 25.5-11.5 0-23.75-14.25t-19.25-14.25-14.5 7q-95 24.5-120 24.5-48 0-60.5-4 0-8 7.5-8.5 7 0 24 1.75t25 1.75q25.5 0 60.5-9.5 28.5-9 58.5-18.5 3 2 5 2 3 0 6.5-6t8-6q9-4 70.5-43-3-6-3-14.5 0 3 7-37-113.5 116.5-250 117-5 0-15.25 1t-15.25 1q-108.5 0-204-123-12.5 1-23.5 1-50 0-76.5-29.5-17.5 13.5-17.5 58.5 0 30.5 16.5 59 9-1 11-14 3-20.5 12.75-43.5t50.75-23q25.5 0 44.5 17.75t19 43.25q0 22.5-12 38 39-19.5 46-19.5 29.5 0 29.5 31v6q-17.5 14.5-25.5 14.5-14.5 0-14.5-14.5t13.5-14.5q4 0 7 2l4 10.5q5-3 5.5-9 0-6-6.25-11.25t-14.25-5.25q-9 0-41.5 21.5t-64 21.5q-28.5 0-60.5-28-26.5 19.5-34 19.5-28.5 0-28.5-26.5 0-18.5 17.5-24.5 14.5 3 19.5 11.5 0 19.5-12.5 19-5 0-11-13-3 2-3.5 6 0 16.5 15.5 16.5 10 0 17.5-5 12.5-10 1-25t-11.5-56q0-16.5 8.75-44.25t8.75-28.75l-5-8q-2 1-5.5 6.75t-8 5.75q-16.5 0-16-12.5 0-4 3-10.75t3-10.75q0-5-6-8h-10.5q-1-1-1-4.5 0-6 7-6l16.5 7q0 4 0-17 0-11.5-9-13.5h-2q-4 0-9.5-6 0-6 7.5-11.5h2q9 0 11-9 4-25.5 36-74 29.5-45 29.5-69.5 0-18.5-12.25-33.25t-30.75-14.75q-13.5 0-24 10.25t-10.5 22.25q0 7 6 17t12.5 10q17.5 0 20.5-8.5v-2q-4 2-10.5 2-14.5 0-14.5-16.5 0-15.5 18.5-15l7.5 1q12.5 9 12 28.5-8 18.5-24.5 18.5-37 0-37-36 0-16.5 13.25-28.25t30.75-11.75q19.5 0 31 11.5 6 5 20.5 29.5 1 7 1 14.5 0 25.5-22.5 57.5-29.5 41-35 53l2 2q28.5-21.5 33-23.5 19.5-10 39-8 5-10 10-40 4-26.5 13.5-39-13.5-18.5-30-32.5-2 1-4 1-7 0-11.75-7.25t-8.75-13.25l7-3q-9-20.5-21.5-64.5-1-14.5-6-41-7 15.5-13 30.5-8 19.5-23 18.5l-4-1-7-10.5q2-4 8-4 4 0 10.5 3 4-7 4-15l-1-5.5q-7-9-10.5-40 3-9 17.5-9 5 0 7.75 6.25t3.75 7.25l5-6.5q2-14.5 28.5-74.5-4-2-8-2t-12.25 3-12.25 3q-17.5 0-31.25-14.75t-13.75-32.25q0-26.5 24.5-35.25t26.5-23.25q2-3 2-6t-1-7.25-1-6.25q-3-6-10-6 5 21.5 5 14.5 0 11.5-16.5 11h-5q-8-8-8.5-17.5 0-20.5 23-20.5 24.5 0 24.5 25 0 3-11.5 30.5 18.5 10 22.5 26.5 20.5-56.5 77-56 34 0 54 19 10-2 28-10-8-3-15.75-6t-7.75-15.5l2-2q2 4 11 8 3-1 10.25-8.5t12.25-7.5q9 0 9.5 7 0-1-4.5 14.5 73.5-9 114-9.5 4 0 12.75 1.5t12.75 1.5q11.5 0 14.5-10 2-1 5-1l7 1 2 10q44 2 106.5 20.5 42-20.5 91.5-20.5 8 0 53 10.5 2-1 6.25-4.75t7.25-3.75q11.5 0 11 16.5 0 8 9.5 6 12.5 8 26.25 16.5t24.75 8.5q9 0 13.25-7.25t10.25-7.25q7 0 7.5 9-2 5-5.5 12.5h6.5q11.5 0 20-9.75t8.5-21.25q0-24.5-22.5-24.5-11.5 0-13.5 9.5-1 0 11.5 0 4 0 6.5 2.5t2.5 6.5q0 11.5-11 11.5-20.5 0-19.5-20.5l1-6.5q4-4 24.5-11 19.5 9 21.5 11 8 6 8 22.5zM138 449.5q0 6-10 13-1-1-13.5-1-6 0-6-9 0-18.5 17.5-18.5 12.5 0 12 10v5.5zM795.5 159.5q0-56.5-34.5-89 9 30.5 9 32.5 0 18.5-14.5 25l-3-4.5q3-5 3-9 0-6-9.5-13.25t-9.5-13.25q0-7 5-8.25t11-2.25q-5-21.5-22.5-31.5-9 9-16.5 9-17.5 0-11-19.5-23.5-12.5-58.5-12-41 0-62.5 13 6 6 27.75 15.25t30.75 18.75q9-1 18.5-1 92 0 92 87 0 4 16 28t16 35.5q0 3-4.5 3-1 0-2-1-4-14.5-32.5-57.5l-22.5 10.5q-12.5 0-23.5-10.5-1-4-1-9 0-16.5 14-16.5 9 0 10.5 3v14.5q17.5-6 17.5-23.5 0-21.5-21-38t-42.5-14.5h-8.5q39 28.5 66.5 56.5v6q-72.5-60.5-87-60.5-12.5 0-32.5 17.5 83 40 144.5 152.5 37.5-28.5 37.5-93zM633 73.5q-48-28.5-62.5-28.5-8 0-18.5 9.25t-16.5 10.25v5q20.5 5 57.5 23.5h4q8 0 18.5-7 14.5-11.5 17.5-12.5zM808 352q-4-27.5-8.5-55-5-34-16-54.5-8 5-20.5 18.5l13 50q0 17.5 10.5 48 3-4 11.25-5t10.25-2zM818 362.5q-1 1-1 4 0 17.5 1 12 5 0 7.25 7.25t6.25 7.25q9 0 9-11 0-15.5-22.5-19.5zM549 41q-2-6-15-6.75t-16-3.75h-2q-8 1-23.5-3t-23.5-4q-10 0-18.5 6h-3q-8 0-10.5-7l-4-1q-8 0-9 6-1 3 0 13.5-7 15.5-21.5 15-6 0-19-3.5t-19-3.5q-20.5 0-20.5 11 0 2 3 6.25t3 7.25q49-15.5 100.5-15.5 41 0 54.5 5.5 9 3 11 3 9 0 18.5-9.5 14.5-15 14.5-16zM660.5 285.5q-34-49-85-82 19.5 67.5 85 82zM810 436q-1-2-9-10-6-5-4.5-12.5-2-4-2-8 0-9 15.5-27-1-5-2.5-10t-6.5-5q-9 0-16.5 10-6 114.5-47 204l28.5 4q7-7 12-23.5 8-20.5 11.5-24.5 0-4 3-11.25t3-11.25q0-7-9-8.5-4-7-4-11 0-3 2-7.5 16.5 1 20.5-17.5 2-15 5-30.5zM557 292.5q0-19.5-18-35.75t-38.5-18.25q0 8 5.5 19.5 8 14.5 9 17.5l-1 1h5q8 0 17 8.5t9 17q0 8-5.5 13h5.5q12 1 12-22.5zM505 276.5l-17.5-38q-19.5 0-38 14.75t-18.5 33.25q0 5 1 9 11.5-11.5 25.5-11 10 0 33 10 5.5-4.5 14.5-18zM387 22.5v-2q-5-1-15.5-1-23.5 0-61 10-29.5 8-60.5 17.5 1 3 1 7t-1 11.25-1 10.25q0 11.5 10 14.5 5-1 6.75-8.25t3.75-8.25h5q1 4 1 9 0 14.5-16 24.75t-32 10.25q-19.5 0-26-13.5-12.5-25.5-12-26.5-42 29.5-42 37 0 18.5 41 18.5 58.5 0 146.5-56.5-3-4-3-10 0-14.5 20.5-29 17-12 34.5-15zM712.5 436q-3 4-14 45-10 34-18.5 34-3 0-7-2-2 2-2.5 5 0 2 3.25 6t3.25 7.5q-11.5 28.5-65.25 75t-83.25 51.5q82-53 106.5-100 3-12.5 7.5-25.25t18-12.75l3-8-3-2q-9 2-13.5-9.5 21.5-57.5 21.5-79 0-12.5-3-24.5-8 16.5-18.5 16.5l-5-1q-12.5-10-12-25.5 0-6 3.5-20.5t3.5-22.5l-1-7.5q-9-14.5-24.5-14v7q0 6-9.5 7l-4-2-2-10 2-5q9-7 17.5-7.5 29.5 0 47 42 14.5 34 14.5 67.5 0 40-16.5 75 2 1 4 1 3-8 9.5-8 2 0 2.5 4t2.5 4q6-9 14-37 8-24.5 17.5-37-4-62.5-39-125.5l-6-5.5-4 1q-33 2-63-30.75t-33.5-67.25q-40-23.5-72.5-29-2 7-2 16.5 0 4 1 16.5v17.5q35 2 59 24t24 56q0 20.5-11.5 37.5 42 47 60.5 119 14.5-1 16.5 2.5t5 18q-2 9-16.5 9v9.5q0 63.5-52.5 119.75t-115 65.25h10q51 2 116-44 75-53 109.5-60.5 17.5-48 16-110.5v-26.5zM764 593.5q-11.5-9-26.5-9-16.5 22.5-51.5 66.5 17.5-4 53.5-12zM188.5 64.5q-3-14.5-21.5-14.5-36 0-36 34 0 8 2 13h6.5q16-10 49-32.5zM814 661.5q0 12.5-10.25 32.25t-21.25 19.75q-7 0-7.5-4 0-1 1-2 14.5-5 14.5-15.5 0-6-4.5-16.25t-4.5-15.25q0-15.5 12-15.5 5 0 10.5 7l1-1q-5-41-31-53l-24.5 44q10 6 18.75 20.25t8.75 25.75q0 19.5-11.75 34.25t-31.25 14.75q-34 0-30.5-34.5-2 1-29.5 28.5 19.5 35 56 35 36 0 61-26.25t25-62.25q0-8-2-16zM767 692q0-29.5-23.5-40l-26.5 35h13q13.5 7 13.5 18.5-4 8-16.5 17 2 2 15.5 3.5 8-2 16.25-13.5t8.25-20.5zM692 583.5q-31.5 4-72.5 38-46 37-68.5 44l-59.5 21.5q39 0 39 18.5 0 11.5-10.5 11l-6-2-1-3 5-7q-4-5-9-5.5-5 0-14.75 10.25t-22.25 10.25q-16.5 0-16.5-13 0-9 11.5-15.5-41-4-82-13.5-6 9-12.5 9.5-5 0-16-6-6-10-6.5-13.5 0-2 3.5-6-49-39-49.5-90.5 0-27.5 15-48t41.5-20.5q11.5 0 14.5 7.5-1 1-21.5 1-10 0-26 16.75t-16 27.25q0 68.5 47 96 6-7 16.5-7 2 0 8 1 11.5 9 7 20.5 19.5 6 41 6 71.5 0 129.5-54.75t57-125.25l-1-8.5h-8q-8-4-8.5-17.5 0-5 7.25-8.5t8.25-4.5q-20.5-71.5-65.5-72-6 0-6.5-6 0-11.5 14.5-11 5 0 16.5 3-8-19.5-19.5-21.5-12.5 5-27.5 5-17.5 0-33-8-11.5-17.5-11-32 0-6 2-11-3 2-6.5 2-2 0-7-1.5t-8-1.5l-5 1q-8 3-27 3v3q0 5 6.75 13.75t6.75 10.75q20.5 16.5 50 28.5 36 14.5 46 20.5 23.5 13.5 39 46.25t15.5 61.25q0 67.5-51.25 116.75t-118.75 49.25q-41 0-67.5-21.5-29.5-22.5-30-62.5 0-19.5 11.25-35.25t30.75-15.75q18.5 0 30.75 13.25t12.25 31.75q0 14.5-7 22.5-26.5 11.5-25.5 11.5-21.5 0-17.5-19.5h-9q-5 4-5.5 13l1 5q18.5 37 61.5 37 44 0 70.75-28.5t26.75-73q0-50-42-76.5-39-18.5-78-38-42-24.5-42-73.5 0-56.5 39.5-94.5t96-32.5q-1-11.5-1-23.5 0-13.5 1-25l-7.5-5q-63.5 0-204.5 36 28.5 4 53 30.5 86-31.5 110.5-31.5 18.5 0 18.5 6 0 2-1 3-25.5 6-76.5 19.5-15.5 3-38 20.5 11.5 18.5 11 47 0 40-27 73.75t-66 33.75q-3 0-8.75 1.75t-8.75 1.75q-4 0-7-4.5l3-4q33-2 59.5-31.5 1-2 1-4.5 0-2-13.5-2-9 0-9-13 0-8 11.75-16.25t11.75-16.75l-1-5h-2q-2 0-5.75 3t-6.75 3q-3-3-3-9 0-8 20.5-8.5 17.5 11.5 17.5 34 0 18.5-17.5 44 17.5-9 29.75-34.75t12.25-47.25q0-24.5-11.5-40-14.5 2-39.5 27.75t-42.25 65.75-16.25 73.5v8.5l34.5 33.5q16.5-14.5 46.5-49 8-14.5 26.5-37l3 8.5q-19.5 38-69.5 88 0 2 7 9 26.5-21.5 69.5-83 5 0 13.5 17.5 73.5 34 84 41 46 29.5 46 74.5 0 37-24 65.25t-61 28.25q-48 0-48-32 18.5 8 33.5 11.5 14.5-6 26.75-13.25t12.25-27.75q0-36-34.5-56.5-29.5-16.5-69-16.5-23.5 0-40 9.5l4.5 8q4 19.5 4 37 0 41-20.5 65.5 25.5 56.5 92 89 59.5 28.5 127 29 70.5 0 124.75-38t73.75-104.5zM730 650q-5-2-9-2-18.5 0-37.5 19t-19 37.5q0 8 4 14 16.5-16.5 34-31.5 19.5-19.5 27.5-37zM101.5 74.5q-10-14.5-20.5-14.5-8 0-9.5 12.5 1-1 3.75-1.5t4.75-0.5q14.5 0 14 17.5 0 10-12 10l3 2q16.5 0 16.5-19.5v-6zM108.5 100q-12.5 12.5-22.5 12.5-11.5 0-19-11.75t-7.5-23.25q0-6 2-11l-1-1q1 0-5 4-6 8-6.5 18.5 0 38 35 38h11q7-1 10.75-2.75t3.75-9.75q0-3-1-7v-6.5zM314.5 232q-17.5-26.5-44-26.5-73.5 0-74 48.5v8q4 6 8.5 11 6 8 11 8.5l6-2q-1-1-5-6.75t-4-9.75v-2q9-12.5 15.5-12.5 5 0 10 5.25t5 8.75v6.5q0 8-7 15.75t-15.5 7.75q-35 0-34.5-36.5 0-38 39-54.5-43-2-67-19.5-11.5-2-20.5-16.5-12.5-16.5-18-20.5-18.5 30.5-18.5 59.5 0 12.5 4 23.5l9-13q5-1 8.5-1 7 0 10.5 4.5t3.5 12.5q0 4-1 11.75t-1 12.25q0 7 16.5 14 3-1 4-8.75t7.5-8.75q5 1 5 11.5l-1 6q-5 10-18.5 10.5-24.5 0-50-39 2 44 23.5 92l3 2-2-5 5-5q5 0 14.5 7 5 2 5 8.5 0 4-5 16 8 9 26.5 23.5 36-63.5 97-115.5 17-10.5 48.5-32zM257 471q-11.5-26.5-27.5-34-3 17.5-3 28.5 0 14.5 4 24zM283.5 555l-9 9h-7q-14.5 1-14.5-16.5 0-12.5 2-14.25t13.25-1.75 11.25-19.5q0-5-2-11.5-11.5 5-35 16.5l-3-4q10-9 31-29-4-6-8.5-6-5 0-15.25 9.75t-16.25 9.75q12.5 51 13 54 9 30.5 22.5 50.5h4.5q14.5-16.5 13-39v-8zM149.5 601q-13.5-88-10-118-28.5 0-52.75 16.5t-29.25 44l12 7q1 2 1 4.5 0 5-13 13-1 5-1 10.5 0 27.5 18.5 48l3-3q1-5 11.25-17.5t10.25-19.5-7.5-13.5v-12q0-8 6.25-20.5t14.25-12.5q12.5 0 12.5 12.5 0 13.5-7 13.5-2 1-4.5 1-3 0-6-4.25t-5-4.25q0 3-1.5 9.75t-1.5 9.75q0 8 10 11.5 7-9 25.5-22.5l3 3q-10 9-26.5 29.5 11.5 13.5 38 13.5zM176 665.5q-2-10-10.75-28.5t-11.75-26l-5 1q-8 0-43-17.5-16.5 16.5-23.5 42 6 8 21.5 15.5 22.5 11.5 24.5 12.5h4q6-1 16.25 2t15.75 3q6 0 12-4zM169 695q6 6 6 13.5 0 13.5-22.5 17.5t-22.5 22.5q0 13.5 16.5 13 4 0 12-2-4-3-9-13 6-10 16.5-10.5 13.5 0 13 12.5 0 20.5-33.5 24.5-21.5-7-26.5-13.5-9-9-9.5-29.5 0-12.5 6-19.5h-1q-10 9-15 28.5-8 27.5-10.5 32l5 4q-3 1-3 4 0 8 25.5 16.5 21.5 7 33 7t22.25-6.5 20.75-14q13.5-17.5 13.5-43 0-36-37-44zM274.5 419.5q0 4-5.75 11.25t-8.75 7.25q-2 0-5.5-1t-5.5-1q-6-7-6.5-14.5l1-5q6-7 16.5-7 7 0 10.75 3.5t3.75 6.5z"></path>
</svg>
